<svg width="87" height="78" fill="none" xmlns="http://www.w3.org/2000/svg"><path d="M1.944 7.722h82.778v65.945a2.388 2.388 0 0 1-2.389 2.388h-78a2.389 2.389 0 0 1-2.389-2.388V7.722Z" fill="#EBEBEB" stroke="#000"/><path d="M1.944 7.722h82.778v10.556H1.944V7.722Z" fill="#428DC5" stroke="#000"/><path d="M33.74 34.413A13.951 13.951 0 1 1 9.572 20.47a13.951 13.951 0 0 1 24.17 13.943Z" fill="#8DC79D" stroke="#000"/><path d="m32.543 33.59-.057.098a12.501 12.501 0 1 1 .057-.099Z" fill="#AAE5C8" stroke="#000"/><path d="M20.719 33.218V30.83h1.889v2.389a1.945 1.945 0 0 0 1.944 1.944h8.723c-.447.671-.95 1.303-1.506 1.889h-7.216a3.838 3.838 0 0 1-3.834-3.834Z" fill="#428DC5" stroke="#000"/><path d="M24.056 52a3.833 3.833 0 1 1-7.667 0 3.833 3.833 0 0 1 7.667 0ZM24.056 66.444a3.833 3.833 0 1 1-7.667 0 3.833 3.833 0 0 1 7.667 0Z" fill="#DBDBDB" stroke="#000"/><path d="m19.554 52.668-2.889-2.89a.944.944 0 1 1 1.336-1.335l1.974 1.975.317.316.35-.28 6.212-4.97a.945.945 0 0 1 1.18 1.476l-7.221 5.777a.94.94 0 0 1-.59.207v.5l-.001-.5a.94.94 0 0 1-.668-.276Z" fill="#DC4D41" stroke="#000"/><path d="M33.722 48.167h1.89v1.889h-1.89v-1.89ZM39.5 48.167h14.889v1.889H39.5v-1.89ZM33.722 53.944h7.667v1.89h-7.667v-1.89ZM45.278 53.944h7.666v1.89h-7.666v-1.89ZM50.056 33.222a3.833 3.833 0 1 1-7.667 0 3.833 3.833 0 0 1 7.667 0Z" fill="#DBDBDB" stroke="#000"/><path d="m45.554 33.89-2.889-2.889a.944.944 0 0 1 .668-1.612c.25 0 .49.1 1.021-.077l1.621 2.328.317.317.35-.28 6.212-4.97a.944.944 0 1 1 1.18 1.475l-7.221 5.778a.94.94 0 0 1-.59.207v.5l-.001-.5a.939.939 0 0 1-.668-.277Z" fill="#DC4D41" stroke="#000"/><path d="M59.722 29.389h1.89v1.889h-1.89v-1.89ZM65.5 29.389h12v1.889h-12v-1.89ZM59.722 35.167h10.556v1.889H59.722v-1.89ZM74.167 35.167H77.5v1.889h-3.333v-1.89ZM33.722 62.61h1.89v1.89h-1.89v-1.89ZM39.5 62.61h14.889v1.89H39.5v-1.89ZM33.722 68.389h9.111v1.889h-9.11v-1.89ZM46.722 68.389H64.5v1.889H46.722v-1.89ZM34.667 1.944c1.32 0 2.389 1.07 2.389 2.39v5.777a2.389 2.389 0 0 1-4.778 0V4.333c0-1.32 1.07-2.389 2.389-2.389ZM17.333 1.944c1.32 0 2.39 1.07 2.39 2.39v5.777a2.389 2.389 0 0 1-4.778 0V4.333c0-1.319 1.069-2.389 2.388-2.389ZM52 1.944c1.32 0 2.389 1.07 2.389 2.39v5.777a2.389 2.389 0 0 1-4.778 0V4.333c0-1.32 1.07-2.389 2.389-2.389ZM69.333 1.944c1.32 0 2.39 1.07 2.39 2.39v5.777a2.389 2.389 0 0 1-4.778 0V4.333c0-1.32 1.069-2.389 2.388-2.389Z" fill="#DBDBDB" stroke="#000"/><path d="M78.668 53.56c.427 2.101.365 4.272-.182 6.345l.484.128-.484-.128a13.951 13.951 0 1 1 .181-6.345Z" fill="#FBB540" stroke="#000"/><path d="m62.586 61.953-.114-.342h-3.77a2.387 2.387 0 0 1-2.342-1.92l-.894-4.467 3.914-1.305.163-.054.095-.143 2.74-4.11h8.15l7.894 10.525a13.975 13.975 0 0 1-13.04 10.14h-.022l-2.774-8.324Z" fill="#DA922A" stroke="#000"/><path d="M74.611 55.056v5.61a2.389 2.389 0 1 1-4.778 0V49.612h.695l4.083 5.445ZM62.611 55.389H64.5v1.889h-1.889v-1.89Z" fill="#834B10" stroke="#000"/><path d="m20.195 22.732-1.644.822-.276.138v2.305a3.389 3.389 0 1 0 6.778 0v-2.305l-.277-.138-1.643-.822.845-1.69 2.441 1.221a.945.945 0 0 1 .523.845v2.889a5.284 5.284 0 0 1-5.278 5.278 5.284 5.284 0 0 1-5.278-5.278v-2.889a.944.944 0 0 1 .522-.845l2.442-1.22.845 1.69Z" fill="#4799CF" stroke="#000"/><mask id="a" fill="#fff"><path d="M85.222 5.778H73.667V4.333a4.334 4.334 0 0 0-8.667 0v1.445h-8.667V4.333a4.333 4.333 0 1 0-8.666 0v1.445H39V4.333a4.333 4.333 0 1 0-8.667 0v1.445h-8.666V4.333a4.334 4.334 0 0 0-8.667 0v1.445H1.444A1.444 1.444 0 0 0 0 7.222v66.445A4.338 4.338 0 0 0 4.333 78h78a4.338 4.338 0 0 0 4.334-4.333V7.222a1.444 1.444 0 0 0-1.445-1.444ZM67.89 4.333a1.444 1.444 0 0 1 2.889 0v5.778a1.444 1.444 0 0 1-2.89 0V4.333Zm-17.333 0a1.444 1.444 0 1 1 2.888 0v5.778a1.444 1.444 0 1 1-2.888 0V4.333Zm-17.334 0a1.444 1.444 0 0 1 2.89 0v5.778a1.444 1.444 0 0 1-2.89 0V4.333Zm1.182 20.52a12.914 12.914 0 0 1-1.902 9.767l-.03.044h-7.92a1.446 1.446 0 0 1-1.444-1.445v-1.627a5.788 5.788 0 0 0 4.334-5.595v-2.889a1.446 1.446 0 0 0-.799-1.292l-2.889-1.444-1.292 2.584L24.552 24v1.996a2.889 2.889 0 0 1-5.777 0v-1.996l2.09-1.045-1.292-2.584-2.889 1.444a1.445 1.445 0 0 0-.798 1.292v2.89a5.789 5.789 0 0 0 4.333 5.594v1.627a4.338 4.338 0 0 0 4.334 4.334h5.288a13.003 13.003 0 1 1 4.563-12.7ZM15.889 4.334a1.444 1.444 0 0 1 2.889 0v5.778a1.444 1.444 0 0 1-2.89 0V4.333Zm-13 4.334H13v1.444a4.323 4.323 0 0 0 1.408 3.194 15.863 15.863 0 0 0-4.993 4.028H2.89V8.667Zm80.889 65a1.447 1.447 0 0 1-1.445 1.444h-78a1.446 1.446 0 0 1-1.444-1.444V20.222h4.63a15.883 15.883 0 1 0 28.3 0h47.959v53.445Zm0-56.334h-49.86a15.937 15.937 0 0 0-12.5-5.78c.165-.462.249-.95.249-1.442V8.667h8.666v1.444a4.333 4.333 0 0 0 8.667 0V8.667h8.667v1.444a4.333 4.333 0 1 0 8.666 0V8.667H65v1.444a4.333 4.333 0 1 0 8.667 0V8.667h10.11v8.666Z"/></mask><path d="M85.222 5.778H73.667V4.333a4.334 4.334 0 0 0-8.667 0v1.445h-8.667V4.333a4.333 4.333 0 1 0-8.666 0v1.445H39V4.333a4.333 4.333 0 1 0-8.667 0v1.445h-8.666V4.333a4.334 4.334 0 0 0-8.667 0v1.445H1.444A1.444 1.444 0 0 0 0 7.222v66.445A4.338 4.338 0 0 0 4.333 78h78a4.338 4.338 0 0 0 4.334-4.333V7.222a1.444 1.444 0 0 0-1.445-1.444ZM67.89 4.333a1.444 1.444 0 0 1 2.889 0v5.778a1.444 1.444 0 0 1-2.89 0V4.333Zm-17.333 0a1.444 1.444 0 1 1 2.888 0v5.778a1.444 1.444 0 1 1-2.888 0V4.333Zm-17.334 0a1.444 1.444 0 0 1 2.89 0v5.778a1.444 1.444 0 0 1-2.89 0V4.333Zm1.182 20.52a12.914 12.914 0 0 1-1.902 9.767l-.03.044h-7.92a1.446 1.446 0 0 1-1.444-1.445v-1.627a5.788 5.788 0 0 0 4.334-5.595v-2.889a1.446 1.446 0 0 0-.799-1.292l-2.889-1.444-1.292 2.584L24.552 24v1.996a2.889 2.889 0 0 1-5.777 0v-1.996l2.09-1.045-1.292-2.584-2.889 1.444a1.445 1.445 0 0 0-.798 1.292v2.89a5.789 5.789 0 0 0 4.333 5.594v1.627a4.338 4.338 0 0 0 4.334 4.334h5.288a13.003 13.003 0 1 1 4.563-12.7ZM15.889 4.334a1.444 1.444 0 0 1 2.889 0v5.778a1.444 1.444 0 0 1-2.89 0V4.333Zm-13 4.334H13v1.444a4.323 4.323 0 0 0 1.408 3.194 15.863 15.863 0 0 0-4.993 4.028H2.89V8.667Zm80.889 65a1.447 1.447 0 0 1-1.445 1.444h-78a1.446 1.446 0 0 1-1.444-1.444V20.222h4.63a15.883 15.883 0 1 0 28.3 0h47.959v53.445Zm0-56.334h-49.86a15.937 15.937 0 0 0-12.5-5.78c.165-.462.249-.95.249-1.442V8.667h8.666v1.444a4.333 4.333 0 0 0 8.667 0V8.667h8.667v1.444a4.333 4.333 0 1 0 8.666 0V8.667H65v1.444a4.333 4.333 0 1 0 8.667 0V8.667h10.11v8.666Z" fill="#000" stroke="#000" stroke-width="2" mask="url(#a)"/><path d="m49.373 53.444.492.092a15.21 15.21 0 0 1 .802-2.797l.268-.683H39.5v-1.89h12.461l.148-.225.039-.062.002-.003.023-.037a15.388 15.388 0 0 1 28.218 8.62 15.39 15.39 0 0 1-15.009 15.263H65.354c-.118.003-.237.005-.356.005L49.373 53.444Zm0 0v.5h-4.095v1.89h4.332v.499a15.487 15.487 0 0 0 1.057 5.597l.265.681H39.5v1.89h12.458l.148.226a15.374 15.374 0 0 0 2.342 2.798l.918.864h-8.644v1.889m2.651-16.834-2.65 16.834m0 0h11.779l.099.046a15.312 15.312 0 0 0 6.397 1.403l-18.276-1.45Zm20.966-.718.002.006a13.506 13.506 0 0 0 10.159-9.1l.079-.246-.155-.207-.818-1.09-.9-1.2v2.944a3.833 3.833 0 0 1-7.667 0V50.056h-5.772l-.149.222-2.46 3.69a.945.945 0 0 1-.487.373l-3.124 1.04-.419.14.087.433.73 3.65a1.947 1.947 0 0 0 1.907 1.563h3.41a.944.944 0 0 1 .896.645l2.546 7.639.124.37.39-.03a13.58 13.58 0 0 0 1.622-.225v-.006Zm3.49-18.341-.901-1.204v10.652a1.944 1.944 0 1 0 3.889 0v-5.463l-.1-.133-2.854-3.805-.035-.047Zm-17.431-2.337-.114.172v.003a13.497 13.497 0 0 0 9.228 20.608l.815.13-.261-.782-1.872-5.616-.114-.341h-2.727a3.843 3.843 0 0 1-3.76-3.083l-.981-4.899a.944.944 0 0 1 .627-1.081l3.864-1.288.163-.054.095-.143 2.614-3.92a.943.943 0 0 1 .786-.421h8.667a.955.955 0 0 1 .47.126c.112.063.209.15.285.252l.4-.3-.4.3 6.07 8.093.9 1.2v-1.5a13.502 13.502 0 0 0-24.755-7.456ZM20.222 69.833a3.392 3.392 0 0 0 3.39-3.388 3.389 3.389 0 1 0-3.39 3.388Zm-2.932-7.777a5.278 5.278 0 0 1 2.932-.89 5.284 5.284 0 0 1 5.278 5.28 5.277 5.277 0 1 1-8.21-4.39ZM23.386 47.779l.31.232.302-.242 2.856-2.284-.312-.39.312.39a.945.945 0 0 1 1.18 1.475l-2.855 2.284-.303.242.16.353a5.284 5.284 0 1 1-1.65-2.06Zm-1.803 1.923.674-.54-.803-.316a3.368 3.368 0 0 0-1.231-.235v.5l-.003-.5c-.295.001-.59.041-.874.119l-.832.226.61.61.852.852.316.316.35-.28.941-.752Zm-3.795 1.2-.61-.61-.226.832a3.377 3.377 0 0 0 3.27 4.265 3.369 3.369 0 0 0 3.346-3.9l-.136-.849-.67.537-1.95 1.56a.944.944 0 0 1-1.258-.07l-1.766-1.766Z" fill="#000" stroke="#000"/><path d="M62.611 55.389H64.5v1.889h-1.889v-1.89ZM33.722 48.167h1.89v1.889h-1.89v-1.89ZM33.722 53.944h7.667v1.89h-7.667v-1.89ZM51.179 30.466l-.303.243.16.353a5.273 5.273 0 0 1-4.814 7.438 5.277 5.277 0 1 1 3.164-9.499l.31.232.302-.242 2.856-2.284a.944.944 0 1 1 1.18 1.475l-2.855 2.285Zm-3.596.458.674-.54-.803-.316a3.372 3.372 0 0 0-1.231-.235v.5l-.003-.5c-.295.001-.59.041-.874.119l-.832.226.61.61.852.852.316.317.35-.28.941-.753Zm-3.795 1.2-.147-.147h-.589l-.1.369a3.39 3.39 0 1 0 6.616.366l-.133-.851-.673.538-1.95 1.56a.945.945 0 0 1-1.258-.069l-1.766-1.766ZM59.722 29.389h1.89v1.889h-1.89v-1.89ZM65.5 29.389h12v1.889h-12v-1.89ZM59.722 35.167h10.556v1.889H59.722v-1.89ZM74.167 35.167H77.5v1.889h-3.333v-1.89ZM33.722 62.611h1.89V64.5h-1.89v-1.889ZM33.722 68.389h9.111v1.889h-9.11v-1.89Z" fill="#000" stroke="#000"/></svg>